<svg xmlns="http://www.w3.org/2000/svg" xmlns:xlink="http://www.w3.org/1999/xlink" width="100" height="100" viewBox="0 0 100 100">
  <defs>
    <clipPath id="clip-baac">
      <rect width="100" height="100"/>
    </clipPath>
  </defs>
  <g id="baac" clip-path="url(#clip-baac)">
    <g id="baac-2" data-name="baac" transform="translate(-392 367)">
      <path id="baac-3" data-name="baac" d="M65.351,0H28.007A28.015,28.015,0,0,0,0,28.007V65.351A28.015,28.015,0,0,0,28.007,93.358H65.351A28.015,28.015,0,0,0,93.358,65.351V28.007A28.015,28.015,0,0,0,65.351,0ZM31.071,6.418H62.214V26.913A36.894,36.894,0,0,0,54.191,33.4V14.3h-15.1V33.4a38.184,38.184,0,0,0-8.023-6.491ZM35.666,72.79V86.721H32.019v-7a3,3,0,0,0-3.282-3.428h-18.6V73.009H31.217a.693.693,0,1,0,0-1.386H10.138V68.414H32.456C36.1,68.414,35.666,70.018,35.666,72.79Zm5.106-9.263V86.721H37.124V70.456a3,3,0,0,0-3.282-3.428h-23.7V63.746H36.4a.694.694,0,0,0,0-1.386H10.138V59.078H37.562C41.209,59.151,40.771,60.683,40.771,63.527ZM45.95,86.721H42.3V61.12a3,3,0,0,0-3.282-3.428H10.138V54.483H41.573a.694.694,0,0,0,0-1.386H10.138V49.888H42.23a4.924,4.924,0,0,1,3.647,5.033v31.8ZM83.147,71.7H62a.693.693,0,1,0,0,1.386H83.147v3.282h-18.6a2.952,2.952,0,0,0-3.282,3.428v7H57.619v-14c0-2.844-.438-4.376,3.209-4.376H83.147Zm0-9.263H56.89a.694.694,0,0,0,0,1.386H83.147V67.1h-23.7a2.952,2.952,0,0,0-3.282,3.428V86.794H52.514V63.527c0-2.844-.438-4.376,3.209-4.376H83.147Zm0-9.336H51.712a.694.694,0,0,0,0,1.386H83.147v3.209H54.337a3,3,0,0,0-3.282,3.428v25.6H47.408v-31.8a4.868,4.868,0,0,1,3.647-5.033H83.147Zm0-4.668H74.832v-16.7c-3.574.438-10.649,4.23-14.3,8.606h12.18V48.5H10.138V32.456h8.169v7.877H32.675c-4.595-5.324-14.368-9.919-22.537-9.628v-14.3H29.977v8.169H23.339c11.889,4.011,20.422,14,23.267,23.777a37.307,37.307,0,0,1,23.34-23.777h-6.71V16.411h11.6V14.077h8.315Z" transform="translate(395.321 -363.679)" fill="#13007d"/>
      <path id="baac_-_Outline" data-name="baac - Outline" d="M23.328-4.679A28.015,28.015,0,0,0-4.679,23.328V60.672A28.015,28.015,0,0,0,23.328,88.679H60.672A28.015,28.015,0,0,0,88.679,60.672V23.328A28.015,28.015,0,0,0,60.672-4.679H23.328m0-3.321H60.672A31.364,31.364,0,0,1,92,23.328V60.672A31.364,31.364,0,0,1,60.672,92H23.328A31.364,31.364,0,0,1-8,60.672V23.328A31.364,31.364,0,0,1,23.328-8Z" transform="translate(400 -359)" fill="#9f853a"/>
      <path id="Path_127" data-name="Path 127" d="M87,57.545H24.422V41.5h8.169v7.877H46.959A22.907,22.907,0,0,0,42.8,45.692a33.239,33.239,0,0,0-5.4-3.072,34.187,34.187,0,0,0-6.071-2.1,26.339,26.339,0,0,0-6.158-.78c-.25,0-.5,0-.745.013v-14.3H44.26v8.169H37.623a36,36,0,0,1,8.251,4.033,37.947,37.947,0,0,1,6.774,5.695,37.44,37.44,0,0,1,5.078,6.775A32.493,32.493,0,0,1,60.889,57.4,36.74,36.74,0,0,1,64.5,49.51,37.409,37.409,0,0,1,84.229,33.622h-6.71V25.453h11.6V23.119h8.315V57.472H89.116V40.77A21.3,21.3,0,0,0,82,43.6a27.462,27.462,0,0,0-7.175,5.78H87v8.168h0Zm-33.623-15.1h0a37.873,37.873,0,0,0-8.022-6.492V15.461H76.5V35.956a36.943,36.943,0,0,0-8.022,6.491V23.338h-15.1V42.447Z" transform="translate(381.074 -372.722)" fill="#fff"/>
      <path id="Path_128" data-name="Path 128" d="M75.55,157.082H71.9v-14c0-.289,0-.562-.009-.826-.022-1.318-.037-2.271.544-2.861a3.671,3.671,0,0,1,2.674-.689H97.431v3.282H76.279a.693.693,0,1,0,0,1.386H97.431v3.282h-18.6a3.292,3.292,0,0,0-2.622.983,3.383,3.383,0,0,0-.66,2.445v7Zm-5.105,0H66.8V133.815c0-.289,0-.562-.009-.826-.022-1.318-.037-2.27.544-2.861a3.671,3.671,0,0,1,2.674-.689H97.431v3.282H71.174a.694.694,0,0,0,0,1.386H97.431v3.282h-23.7a3.292,3.292,0,0,0-2.622.983,3.382,3.382,0,0,0-.66,2.445Zm-5.105-.073H61.692v-31.8a5.729,5.729,0,0,1,.975-3.255,4.191,4.191,0,0,1,2.671-1.778H97.431v3.209H66a.694.694,0,0,0,0,1.386H97.431v3.209H68.621a3.265,3.265,0,0,0-2.574.965,3.467,3.467,0,0,0-.707,2.463Zm-5.179,0H56.587v-25.6a3.464,3.464,0,0,0-.708-2.463,3.265,3.265,0,0,0-2.574-.965H24.421v-3.209H55.857a.694.694,0,0,0,0-1.386H24.421v-3.209H56.513a4.187,4.187,0,0,1,2.671,1.805,5.725,5.725,0,0,1,.975,3.227Zm-5.105,0H51.408V140.744a3.464,3.464,0,0,0-.708-2.463,3.265,3.265,0,0,0-2.574-.965h-23.7v-3.282H50.679a.694.694,0,0,0,0-1.386H24.421v-3.282H51.845c1.553.031,2.432.33,2.852.968a4.918,4.918,0,0,1,.366,2.655c0,.265-.009.537-.009.826Zm-5.105,0H46.3v-7a3.464,3.464,0,0,0-.708-2.463,3.265,3.265,0,0,0-2.574-.965h-18.6V143.3H45.5a.693.693,0,1,0,0-1.386H24.421V138.7H46.74a3.687,3.687,0,0,1,2.664.7c.592.6.576,1.554.554,2.872,0,.258-.009.524-.009.805Z" transform="translate(381.074 -433.967)" fill="#9f853a"/>
    </g>
  </g>
</svg>
