<svg xmlns="http://www.w3.org/2000/svg" xmlns:xlink="http://www.w3.org/1999/xlink" width="100" height="100" viewBox="0 0 100 100">
  <defs>
    <clipPath id="clip-ghb">
      <rect width="100" height="100"/>
    </clipPath>
  </defs>
  <g id="ghb" clip-path="url(#clip-ghb)">
    <rect width="100" height="100" fill="#f89827"/>
    <g id="ghb-2" data-name="ghb" transform="translate(7.61 10.085)">
      <path id="Path_26" data-name="Path 26" d="M6.521,57.751c0-3.819.063-7.575,0-11.394,0-1.252.438-1.565,1.565-1.565,2.129.063,4.257,0,6.386.063,1.252.063,1.565-.438,1.565-1.628q-.094-3.568,0-7.137c0-1.064-.313-1.565-1.44-1.5-2.254.063-4.445,0-6.7.063-1,0-1.315-.313-1.315-1.315.063-4.445.063-8.89,0-13.4a2.217,2.217,0,0,1,1.315-2C17.1,12.552,26.366,7.23,35.569,1.846a3.5,3.5,0,0,0,.5-.313c2.692-2.5,5.008-1.815,7.951.125,10.83,7.074,21.911,13.9,32.867,20.722a2.8,2.8,0,0,1,1.5,2.692c-.063,6.761-.063,13.585,0,20.346,0,1.252-.376,1.69-1.628,1.628-2.254-.063-4.445,0-6.7-.063-1,0-1.5.25-1.44,1.377.063,2.5.063,4.946,0,7.45,0,1.064.376,1.44,1.44,1.44,2.254-.063,4.445,0,6.7,0,.939,0,1.377.25,1.315,1.315q-.094,5.259,0,10.517c0,1.189-.5,1.565-1.5,1.878-9.14,2.88-18.28,5.759-27.42,8.764a7.431,7.431,0,0,1-5.446-.25c-7.012-2.817-14.023-5.509-21.035-8.264a6.171,6.171,0,0,0-2.379-.438c-4.069-.063-8.138-.063-12.145,0-1.44.063-1.815-.5-1.753-1.815C6.584,65.2,6.521,61.445,6.521,57.751Zm5.634-32.3c.689-.188,1.252-.313,1.815-.5,6.949-2.316,13.9-4.57,20.847-7.012a4.323,4.323,0,0,1,4.257.563c4.007,2.88,8.138,5.634,12.27,8.389a2.423,2.423,0,0,1,.814,3.631c-1,1.753-2.129,2.129-3.756,1.189-1.69-1-3.318-2.129-5.008-3.193-1.878-1.189-3.193-.814-4.57,1.189-1.252,1.815-1.064,3.13.751,4.382,4.257,3,8.577,5.947,12.9,8.827a4.045,4.045,0,0,0,2.129.626c5.572.063,11.143,0,16.715.063,1.189,0,1.69-.25,1.69-1.565-.063-4.883-.063-9.829,0-14.712a2.041,2.041,0,0,0-1.064-1.941c-10.455-6.2-20.972-12.458-31.427-18.718a2.349,2.349,0,0,0-2.755,0L14.1,20.565C11.592,21.879,11.4,22.38,12.156,25.448ZM54.788,61.319h-16.9c-1.815,0-2.755-1.127-2.755-3.068.063-1.815.751-2.5,2.629-2.5,2.692,0,5.384.063,8.076-.063,2-.063,2.942-1.189,2.942-3.255a3.168,3.168,0,0,0-3.13-3.255H13.282c-1.064,0-1.44.313-1.44,1.377.063,4.7.063,9.453,0,14.148,0,1.127.376,1.5,1.5,1.5,3.568-.063,7.2-.063,10.768,0a6.171,6.171,0,0,1,2.379.438c6.135,2.379,12.27,4.758,18.343,7.2a4.847,4.847,0,0,0,3.506.125c7.638-2.567,15.338-5.071,23.038-7.575,1.377-.438,2.066-1.064,1.815-2.567a2.371,2.371,0,0,1,0-.939c.125-1.189-.313-1.565-1.5-1.565C65.994,61.382,60.36,61.319,54.788,61.319Z" transform="translate(0)" fill="#fff"/>
    </g>
  </g>
</svg>
