<svg xmlns="http://www.w3.org/2000/svg" xmlns:xlink="http://www.w3.org/1999/xlink" width="100" height="100" viewBox="0 0 100 100">
  <defs>
    <clipPath id="clip-ibank">
      <rect width="100" height="100"/>
    </clipPath>
  </defs>
  <g id="ibank" clip-path="url(#clip-ibank)">
    <g id="Group_83" data-name="Group 83" transform="translate(-872 266)">
      <path id="Path_584" data-name="Path 584" d="M46.071,83.6h0a14.586,14.586,0,0,1-6.586-1.487A12.229,12.229,0,0,1,33.234,74c-1.1-4.325-.68-9.272,1.237-14.7a49.294,49.294,0,0,1,2.748-6.114c-3.726,3.727-7.42,7.56-10.991,11.267A192.727,192.727,0,0,1,43.95,43.224c3.04-2.919,6.659-6.344,10.441-9.618a32.693,32.693,0,0,1,3.847-3.023A66.9,66.9,0,0,0,51.85,40.613a71.049,71.049,0,0,0-5.839,13.809,35.479,35.479,0,0,0-1.382,7.558,18,18,0,0,0,1.039,7.557,12.893,12.893,0,0,0,2.293,3.71,7.186,7.186,0,0,0,3.684,2.267A17,17,0,0,0,55.712,76a18.559,18.559,0,0,0,11.251-3.855A42.165,42.165,0,0,1,60.643,78a32.74,32.74,0,0,1-7.556,4.251A19.97,19.97,0,0,1,46.071,83.6Zm15.19-52.808h0c.111-.629.2-1.246.295-1.9.078-.542.16-1.1.255-1.673l-.92-.849-.021-.02-1.738-1.6.189-.033h0c1.087-.192,2.21-.39,3.378-.585.239-.547.5-1.1.752-1.64s.518-1.1.759-1.657c.545,1.022,1.1,2.13,1.634,3.2l.014.028c.542.064,1.087.141,1.664.222.648.091,1.316.186,1.978.259-.533.492-1.008,1-1.51,1.534-.33.352-.671.716-1.031,1.076.285,1.141.5,2.357.687,3.5-.555-.278-1.1-.542-1.628-.8s-1.056-.511-1.6-.783c-.768.461-1.578.885-2.361,1.3-.263.138-.535.281-.8.421Z" transform="translate(869.804 -266.508)" fill="#ffb200"/>
      <path id="ibank-2" data-name="ibank" d="M76.579,14.515A43.709,43.709,0,0,0,39.484.293,43.124,43.124,0,0,0,14.891,10.942,44.874,44.874,0,0,0,2.32,29.7,44.154,44.154,0,0,0,13.38,75.661a44.078,44.078,0,0,0,51.727,7.008A43.995,43.995,0,0,0,87.02,34.989,44.484,44.484,0,0,0,76.579,14.515ZM44.842,75.8c-4.328,1.649-9.342,1.992-13.6-.137a12.226,12.226,0,0,1-6.251-8.107c-1.236-4.878-.412-10.031,1.236-14.7a48.858,48.858,0,0,1,2.748-6.115c-3.709,3.71-7.35,7.489-10.991,11.267A193.472,193.472,0,0,1,35.706,36.775c3.435-3.3,6.869-6.527,10.442-9.619a32.357,32.357,0,0,1,3.847-3.023,66.907,66.907,0,0,0-6.389,10.031,71.81,71.81,0,0,0-5.839,13.809c-1.374,4.878-2.2,10.237-.343,15.115,1.1,2.611,3.023,5.29,5.976,5.977A18.268,18.268,0,0,0,58.718,65.7,36.974,36.974,0,0,1,44.842,75.8ZM59.405,24.2c-1.1-.55-2.13-1.031-3.229-1.58-1.03.618-2.13,1.168-3.16,1.718.206-1.168.343-2.336.55-3.573l-2.679-2.473c1.168-.206,2.336-.412,3.572-.618.481-1.1,1.03-2.2,1.511-3.3.55,1.031,1.1,2.13,1.649,3.229,1.168.137,2.4.344,3.641.481-.893.824-1.649,1.718-2.542,2.611C58.993,21.8,59.2,22.966,59.405,24.2Z" transform="translate(878.049 -260.059)" fill="#164614"/>
    </g>
  </g>
</svg>
