<svg xmlns="http://www.w3.org/2000/svg" xmlns:xlink="http://www.w3.org/1999/xlink" width="100" height="100" viewBox="0 0 100 100">
  <defs>
    <clipPath id="clip-kiatnakin">
      <rect width="100" height="100"/>
    </clipPath>
  </defs>
  <g id="kiatnakin" clip-path="url(#clip-kiatnakin)">
    <g id="kk">
      <path id="Path_82" data-name="Path 82" d="M50,0a50,50,0,1,0,50,50A50.046,50.046,0,0,0,50,0ZM38.672,28.984a3.512,3.512,0,0,1,1.8-2.422C48.828,22.578,57.344,18.75,65.7,14.844a7.811,7.811,0,0,1,9.063,1.328c3.047,2.891,6.016,5.859,8.906,8.984.625.625.7,1.875,1.016,2.813-.859.234-1.719.469-2.656.7A22.077,22.077,0,0,0,76.953,30C65.391,35.469,53.828,41.172,42.188,46.719c-1.016.469-1.953.859-3.594,1.641C38.594,41.406,38.516,35.234,38.672,28.984Zm39.922,37.5c-3.906.156-7.812.156-11.641,0a3.544,3.544,0,0,1-2.5-1.719c-3.594-6.875-7.031-13.828-10.7-21.172,5.781-2.812,11.172-5.391,16.875-8.2,4.219,8.125,8.516,15.938,12.422,23.984C84.688,62.734,82.422,66.25,78.594,66.484ZM22.344,18.438c4.375-3.594,8.906-6.8,14.453-8.047V66.328H18.516V62.891c0-12.031.078-23.984,0-36.016A10.2,10.2,0,0,1,22.344,18.438ZM64.063,86.094H50.078c-4.531,0-9.141-.312-13.672.078-6.641.547-11.875-2.188-16.172-7.266q-3.281-3.984-6.328-8.2a3.1,3.1,0,0,1-.234-2.5c.078-.312,1.328-.391,2.031-.312,1.953.156,3.906.625,5.938.625,18.75.078,37.578.078,56.328,0a62.349,62.349,0,0,0,6.563-.7c.625-.078,1.641,0,1.8.313a3.237,3.237,0,0,1,.078,2.266C83.125,78.828,72.734,86.094,64.063,86.094Z" fill="#009bc9"/>
    </g>
  </g>
</svg>
