<svg xmlns="http://www.w3.org/2000/svg" xmlns:xlink="http://www.w3.org/1999/xlink" width="100" height="100" viewBox="0 0 100 100">
  <defs>
    <clipPath id="clip-ktb">
      <rect width="100" height="100"/>
    </clipPath>
  </defs>
  <g id="ktb" clip-path="url(#clip-ktb)">
    <rect width="100" height="100" fill="#00a3e4"/>
    <g id="g6429_1_" transform="translate(373.875 531.059)">
      <path id="path6431_1_" d="M-308.11-458.456s.468-.78.7.312c0,0,.468,6.319-3.2,10.22-2.5,2.574-8.269,6.241-14.744,4.6,0,0,10.376-.7,13.028-11l.312-1.17a8.436,8.436,0,0,0,3.9-2.965m23.638-31.829a.7.7,0,0,0-.078-.39s-.156-.624-.546-1.716a1.109,1.109,0,0,1-.156-.468h0a.272.272,0,0,0-.078-.156,20.3,20.3,0,0,0-4.291-6.241s2.418-.156-.234-3.121a40.509,40.509,0,0,0-12.872-9.128c-4.525-2.106-9.674-1.248-9.206,3.823.312,3.511-2.964,4.915-5.539,4.6-3.042-.39-4.915-2.886-4.369-4.915a9.148,9.148,0,0,1,3.355-5.227,7.617,7.617,0,0,1,4.057-1.95c1.248-.234,2.965-.7,3.433.78.858-.468,2.418-3.433-2.652-3.433a2.4,2.4,0,0,0-2.5-1.326s-5.071-4.993-10.766,1.17c0,0-2.184.858-2.34,0,.468.39,1.326-.78.234-1.248-.546-.234-1.17.39-1.248.858a1.282,1.282,0,0,0,1.17,1.482,2.93,2.93,0,0,0,.858,0l-.39.468c-1.716.7-3.277.156-3.589-1.014a.654.654,0,0,0,.936-.468.929.929,0,0,0-.858-1.17c-.936-.156-1.326.936-1.17,1.872a2.94,2.94,0,0,0,3.589,2.184l-.312.468a41.614,41.614,0,0,0-3.355,4.993c-1.56,2.652-7.879,5.617-6.787-.78.312-2.028-3.042-4.447-9.049-.39a32.167,32.167,0,0,0-9.986,10.766s-1.248,2.028.858,2.106c0,0-4.291,2.028-4.525,11.78h0v1.95c0,1.092.078,2.34.156,3.043,0,0,.468,5.851,1.482,6.865h.156c.312.234.7.312,1.248-.234h0a58.27,58.27,0,0,0,3.979,12.17c2.184,4.369,6.163,10.766,4.6,12.326s-3.745-1.56-3.433-.312a3.117,3.117,0,0,0,4.837,1.872c3.745-2.964-1.716-10.064-3.433-19.035,3.589-1.56,3.433-7.177,3.433-7.177s5.071-.156,6.631-6.163c0,0,6.163,1.794,9.128-3.589v-.078l.078-.078a11.768,11.768,0,0,0,3.433,4.993,4.526,4.526,0,0,1-3.2,3.511,10.8,10.8,0,0,0-7.411,0c-3.511,1.4-2.106,5.149.468,4.213a1.014,1.014,0,0,1,.234-1.95,2.417,2.417,0,0,0,1.014.468h0a11.821,11.821,0,0,0,5.3-.312c.156-.078.312-.078.468-.234h.078a3.4,3.4,0,0,0,.546-.468.928.928,0,0,1,.234,1.794,1.906,1.906,0,0,0,2.028-2.965s.468-.312,1.092-.78a6.916,6.916,0,0,0,1.17-1.4,16.917,16.917,0,0,0,5.929,2.574s-2.028,3.355-4.993,3.979c0,0-4.213-1.4-7.1.39a2.619,2.619,0,0,0-1.326,2.5,2.266,2.266,0,0,0,2.73,1.95c-.624-.312-2.028-1.872-.234-2.574a1.769,1.769,0,0,0,1.248.858h0a10.328,10.328,0,0,0,5.929-.78c.156-.078.234-.078.39-.156a.242.242,0,0,0,.156-.078h0a1.324,1.324,0,0,0,.468-.468c.858-.156,2.028.234,1.56,1.872,1.014-.156,2.652-1.95.234-3.433a14.16,14.16,0,0,0,2.574-1.716l1.716-1.716c3.355.468,5.851,3.667,5.851,7.567,0,3.2-2.73,6.943-5.617,7.723.078,0,.234-.078.312-.078l-.39.078h.078a8.768,8.768,0,0,1-1.56.156c-2.964-.078-1.17-3.511-1.17-3.511a1.377,1.377,0,0,0-1.326.546,3.5,3.5,0,0,0-.468,2.652c-.156-.078-.312-.078-.39-.156-2.574-1.092-2.418-3.043-2.418-3.043-.7.312-1.17,1.17-.936,2.652.39,1.95,2.886,2.808,4.915,3.042,1.17,1.17,3.042,2.34,7.333,1.638,0,0-1.872,9.986-14.51,9.518,0,0-3.823-1.4-3.667-4.6a6.6,6.6,0,0,1,3.12-5.773c-1.092-.156-3.745.156-4.915,3.667a6.891,6.891,0,0,0,1.014,6.007c-4.759-1.248-8.347-4.837-6.865-9.83a6.159,6.159,0,0,1,1.326-2.262c3.589-3.355,8.893-1.326,8.893-1.326-.234-1.17-1.716-2.73-4.369-2.886a7.91,7.91,0,0,0-8.347,7.8c-.39,5.773,3.277,9.986,12.4,11.312l.156.078a16.8,16.8,0,0,0,13.34,1.794s15.759-3.2,12.4-21.219c0,0,3.667-12.014-4.057-18.8,4.759,3.9,10.61,1.638,10.61,1.638-.39,10.922,4.213,12.326,4.213,12.326l.156-.078s-8.659,18.645-3.589,21.063a3.414,3.414,0,0,0,4.759-1.794c.858-1.794-1.872,1.716-3.433.234-1.872-1.872.468-6.319,2.731-11.078,3.2-6.4,5.3-11.156,5.695-14.354a1.133,1.133,0,0,0,1.014.078l.078.078c1.248-.312,2.028-5.461,2.184-6.319a24.667,24.667,0,0,0,.234-10.376" transform="translate(0)" fill="#fff"/>
    </g>
  </g>
</svg>
