<svg xmlns="http://www.w3.org/2000/svg" xmlns:xlink="http://www.w3.org/1999/xlink" width="100" height="100" viewBox="0 0 100 100">
  <defs>
    <clipPath id="clip-promptpay_2">
      <rect width="100" height="100"/>
    </clipPath>
  </defs>
  <g id="promptpay_2" data-name="promptpay – 2" clip-path="url(#clip-promptpay_2)">
    <rect width="100" height="100" fill="#fff"/>
    <g id="Group_93" data-name="Group 93" transform="translate(-2336 1281.417)">
      <g id="Rectangle_36" data-name="Rectangle 36" transform="translate(2336 -1281.417)" fill="#fff" stroke="#003d6a" stroke-width="3">
        <rect width="100" height="100" stroke="none"/>
        <rect x="1.5" y="1.5" width="97" height="97" fill="none"/>
      </g>
      <g id="Group_96" data-name="Group 96" transform="translate(0 2.654)">
        <g id="Group_94" data-name="Group 94" transform="translate(9.08 -28.998)">
          <rect id="Rectangle_34" data-name="Rectangle 34" width="70" height="19.416" transform="translate(2341.92 -1224.846)" fill="#003d6a"/>
          <g id="Group_88" data-name="Group 88" transform="translate(2345.497 -1222.674)">
            <path id="Path_600" data-name="Path 600" d="M0,13.923V6.515H0V2.81H2.044v3.7H6.515a2.427,2.427,0,1,0,0-4.854H0V0H6.9A4.089,4.089,0,0,1,8.489,7.854,4.062,4.062,0,0,1,6.9,8.175H2.044v5.748Z" transform="translate(0 0)" fill="#fff"/>
            <path id="Path_599" data-name="Path 599" d="M0,10.347V.255H1.788V10.347ZM1.788,1.779A3.362,3.362,0,0,1,5.109,0V1.779c-2.423,0-3.038,1.132-3.321,2.456Z" transform="translate(12.135 3.577)" fill="#fff"/>
            <path id="Path_598" data-name="Path 598" d="M12.518,10.344V3.412c-.049-1.338-.592-1.823-1.872-1.823A2.6,2.6,0,0,0,8.055,4.231l-.007-.076v6.188H6.259V3.808l-.011.007c0-1.28-.293-2.26-1.7-2.26A2.992,2.992,0,0,0,1.788,4.515V1.663C2.887.564,3.442,0,5.013,0a2.768,2.768,0,0,1,2.84,1.594A3.63,3.63,0,0,1,11.047.011a2.922,2.922,0,0,1,3.254,2.8h.006v7.536ZM0,10.344V.252H1.788V10.344Z" transform="translate(30.146 3.58)" fill="#fff"/>
            <path id="Path_596" data-name="Path 596" d="M3.321,13.028h0A1.747,1.747,0,0,1,1.536,11.24h0V4.215H0V2.809H1.533V0H3.321v2.81H4.982V4.215H3.321V11.1h0c.1.547,1.3.649,1.788.518v1.147a3.082,3.082,0,0,1-1.532.263C3.445,13.032,3.35,13.029,3.321,13.028Z" transform="translate(57.354 1.023)" fill="#fff"/>
            <path id="Path_597" data-name="Path 597" d="M0,12.261V.254H1.788V1.616A4.082,4.082,0,0,1,3.131.457,4.041,4.041,0,0,1,5.044,0h.031A4.574,4.574,0,0,1,7.013.416a3.954,3.954,0,0,1,1.4,1.108,4.876,4.876,0,0,1,.848,1.636,6.737,6.737,0,0,1,.283,2,6.633,6.633,0,0,1-1.1,3.835,4.07,4.07,0,0,1-1.419,1.25,4.355,4.355,0,0,1-2.041.472H4.937a3.934,3.934,0,0,1-2.01-.529A3.833,3.833,0,0,1,1.788,9.129v3.132ZM2.026,7.1a3.333,3.333,0,0,0,.79,1.373,2.456,2.456,0,0,0,1.806.716,2.653,2.653,0,0,0,1.315-.324,2.652,2.652,0,0,0,.919-.879,4.168,4.168,0,0,0,.54-1.3,6.71,6.71,0,0,0,.178-1.574,4.932,4.932,0,0,0-.239-1.6,2.981,2.981,0,0,0-.7-1.158,2.6,2.6,0,0,0-.927-.6A3.417,3.417,0,0,0,4.5,1.559a2.388,2.388,0,0,0-1.25.327,2.5,2.5,0,0,0-.842.863,4.108,4.108,0,0,0-.475,1.223,6.176,6.176,0,0,0-.142,1.066v.689A5.566,5.566,0,0,0,2.026,7.1Z" transform="translate(47.007 3.578)" fill="#fff"/>
            <path id="Path_601" data-name="Path 601" d="M4.888,10.8a5.539,5.539,0,0,1-2.011-.347,4.144,4.144,0,0,1-1.444-.936A5.533,5.533,0,0,1,0,5.541a7.278,7.278,0,0,1,.273-2,5.361,5.361,0,0,1,.872-1.779A4.276,4.276,0,0,1,2.705.489,5.364,5.364,0,0,1,5.044,0,4.91,4.91,0,0,1,8.661,1.264,4.264,4.264,0,0,1,9.684,3a7.092,7.092,0,0,1,.307,2.181,7.238,7.238,0,0,1-.3,2.071,5.434,5.434,0,0,1-.91,1.8,4.4,4.4,0,0,1-1.573,1.269,5.311,5.311,0,0,1-2.284.489Zm.04-9.314A2.629,2.629,0,0,0,2.67,2.725a4.193,4.193,0,0,0-.555,1.254A5.521,5.521,0,0,0,1.931,5.4a4.224,4.224,0,0,0,.942,3.069,2.376,2.376,0,0,0,.849.544,3.409,3.409,0,0,0,1.206.2,3.265,3.265,0,0,0,1.5-.324,2.476,2.476,0,0,0,.956-.88,3.889,3.889,0,0,0,.5-1.3,7.714,7.714,0,0,0,.149-1.574A3.915,3.915,0,0,0,7.079,2.3a2.619,2.619,0,0,0-.928-.6A3.426,3.426,0,0,0,4.928,1.489Z" transform="translate(18.047 3.558)" fill="#fff"/>
          </g>
        </g>
        <g id="Group_89" data-name="Group 89" transform="translate(2391 -1228.847)">
          <g id="Group_95" data-name="Group 95" transform="translate(-40 0.149)">
            <path id="Path_602" data-name="Path 602" d="M0,32.341V0H16.383a8.929,8.929,0,0,1,8.936,8.936V11.7a8.928,8.928,0,0,1-8.936,8.936H7.021v11.7ZM7.021,15.106h7.021A4.252,4.252,0,0,0,18.3,10.851V9.787a4.252,4.252,0,0,0-4.255-4.255H7.021Z" fill="#003d6a"/>
            <path id="Path_608" data-name="Path 608" d="M7.75,25.264a9.361,9.361,0,0,1-2.305-.313A8.578,8.578,0,0,1,2.9,23.842a6.313,6.313,0,0,1-2.056-2.16A6.927,6.927,0,0,1,0,18.218,8.267,8.267,0,0,1,.707,14.69a6.285,6.285,0,0,1,1.9-2.34,12.377,12.377,0,0,1,6.106-2.088c.477-.058.923-.109,1.354-.159a22.075,22.075,0,0,0,4.008-.664,2.5,2.5,0,0,0,1.037-.6,1.579,1.579,0,0,0,.418-.979V7.6h.014s0-.008,0-.011,0-.006,0-.01a2.055,2.055,0,0,0-.938-1.924,3.811,3.811,0,0,0-1.336-.472,11.369,11.369,0,0,0-2.059-.156A6.234,6.234,0,0,0,9.236,5.3a2.923,2.923,0,0,0-1.189.716A4.706,4.706,0,0,0,7,8.243H.851A11.983,11.983,0,0,1,1.6,5.135a8.129,8.129,0,0,1,.72-1.4A7.117,7.117,0,0,1,3.332,2.5a7.348,7.348,0,0,1,1.36-1.033A9.023,9.023,0,0,1,6.444.681,15.565,15.565,0,0,1,11.316,0H11.5a19.507,19.507,0,0,1,4.823.561,10.079,10.079,0,0,1,1.775.648,7.152,7.152,0,0,1,1.393.875,5.985,5.985,0,0,1,1.044,1.09,6.205,6.205,0,0,1,.728,1.292A9.086,9.086,0,0,1,21.9,7.6h.014v.5c0,.046,0,.093,0,.139,0,.031,0,.065,0,.1,0,1.589-.011,9.651,0,12.309a4.261,4.261,0,0,0,.555,2.474.892.892,0,0,0,.688.407h.029v1.1H16.42a8.289,8.289,0,0,1-.788-2.876,13.28,13.28,0,0,1-4.073,2.792A9.717,9.717,0,0,1,7.75,25.264Zm7.767-12.6a3.384,3.384,0,0,1-1.373.829,19.118,19.118,0,0,1-3,.675,9.731,9.731,0,0,0-3.436,1.05,2.756,2.756,0,0,0-1.29,2.544,2.85,2.85,0,0,0,.189,1.11,2.727,2.727,0,0,0,.594.919,3.754,3.754,0,0,0,2.732,1.017c.066,0,.13,0,.189,0a6.28,6.28,0,0,0,1.806-.339,5.68,5.68,0,0,0,1.748-.961,4.832,4.832,0,0,0,1.32-1.675,5.725,5.725,0,0,0,.522-2.481Z" transform="translate(27.021 3.672)" fill="#003d6a"/>
            <path id="Path_607" data-name="Path 607" d="M4.482,28.7l2.123-7.754L0,0H7.021L9.868,9.028,12.34,0h6.809L11.291,28.7Z" transform="translate(50.851 3.617)" fill="#003d6a"/>
          </g>
        </g>
        <g id="Group_91" data-name="Group 91" transform="translate(2351 -1272.071)">
          <path id="Path_641" data-name="Path 641" d="M7.608,7.5v0h-.43L5.522,2.633,3.865,7.5h-.33v0h-.85a.976.976,0,0,1-.816-1.063l0-3.528-.1,0A1.639,1.639,0,0,1,0,1.458,1.639,1.639,0,0,1,1.77,0,1.639,1.639,0,0,1,3.541,1.458c0,.005,0,.01,0,.015h0l0,2.585L4.793.006l0-.006H6.252l0,.006L7.605,4.384l0-2.092h0V0H9.269V2.263l.006,4.178A.976.976,0,0,1,8.459,7.5ZM1.042,1.458a.581.581,0,0,0,.625.521.581.581,0,0,0,.625-.521A.581.581,0,0,0,1.666.937.581.581,0,0,0,1.042,1.458Z" transform="translate(0 4.895)" fill="#003d6a"/>
          <path id="Path_644" data-name="Path 644" d="M7.608,7.5v0h-.43L5.522,2.633,3.865,7.5h-.33v0h-.85a.976.976,0,0,1-.816-1.063l0-3.528-.1,0A1.639,1.639,0,0,1,0,1.458,1.639,1.639,0,0,1,1.77,0,1.639,1.639,0,0,1,3.541,1.458c0,.005,0,.01,0,.015h0l0,2.585L4.793.006l0-.006H6.252l0,.006L7.605,4.384l0-2.092h0V0H9.269V2.263l.006,4.178A.976.976,0,0,1,8.459,7.5ZM1.042,1.458a.581.581,0,0,0,.625.521.581.581,0,0,0,.625-.521A.581.581,0,0,0,1.666.937.581.581,0,0,0,1.042,1.458Z" transform="translate(49.782 4.895)" fill="#003d6a"/>
          <path id="Path_642" data-name="Path 642" d="M5,7.4V7.394H.1v-2.6c0-.471.629-.889.983-.933C.735,3.832,0,3.4,0,2.919V1.461H0v0A1.639,1.639,0,0,1,1.771,0a1.639,1.639,0,0,1,1.77,1.458,1.629,1.629,0,0,1-1.72,1.457v.031c0,.17.134.275.328.282h1.5v1.25H2.119c-.2,0-.348.107-.348.283V6.145H4.383A.606.606,0,0,0,5,5.567L5,2.4H5V.1H6.665V2.159l.005,4.178A.975.975,0,0,1,5.855,7.4ZM1.25,1.458a.581.581,0,0,0,.625.521A.581.581,0,0,0,2.5,1.458.581.581,0,0,0,1.875.937.581.581,0,0,0,1.25,1.458Z" transform="translate(61.967 4.791)" fill="#003d6a"/>
          <path id="Path_645" data-name="Path 645" d="M0,6.246l0,0V0H1.666V4.689l.1,0a1.639,1.639,0,0,1,1.77,1.458A1.639,1.639,0,0,1,1.771,7.6,1.667,1.667,0,0,1,0,6.246Zm1.246-.1a.581.581,0,0,0,.625.521A.581.581,0,0,0,2.5,6.145a.581.581,0,0,0-.625-.521A.581.581,0,0,0,1.25,6.145Z" transform="translate(43.742 4.895)" fill="#003d6a"/>
          <path id="Path_646" data-name="Path 646" d="M6.9,7.5H5.991a12.17,12.17,0,0,0-.77-.952A4.045,4.045,0,0,0,3.749,5.391v.76a1.152,1.152,0,0,1-.26.76,1.469,1.469,0,0,1-.573.4,2.635,2.635,0,0,1-.833.186A2.769,2.769,0,0,1,.712,7.136,1.337,1.337,0,0,1,0,5.98,1.721,1.721,0,0,1,.435,4.74a2.581,2.581,0,0,1,1.648-.668V2.914l-.1,0A1.639,1.639,0,0,1,.208,1.458,1.639,1.639,0,0,1,1.979,0,1.67,1.67,0,0,1,3.745,1.356l0,0V4.139a5.656,5.656,0,0,1,2.295,1.1l0-2.946V0H7.707V2.263l.006,4.178A.969.969,0,0,1,6.9,7.5ZM2.083,5.217a1.073,1.073,0,0,0-.537.176.565.565,0,0,0-.3.449c0,.247.112.511.425.511a.393.393,0,0,0,.413-.208ZM1.875.937a.581.581,0,0,0-.625.521.581.581,0,0,0,.625.521A.581.581,0,0,0,2.5,1.458.581.581,0,0,0,1.875.937Z" transform="translate(31.869 4.895)" fill="#003d6a"/>
          <path id="Path_648" data-name="Path 648" d="M2.2,7.337a1.031,1.031,0,0,0-.833.375L0,6.864a2.4,2.4,0,0,1,1.869-.811c1.027,0,1,.5,2.092.5S5.01,5.813,5.01,5.813,1.238,6.3,1.051,4.128H1.039V1.468s0-.007,0-.01,0-.006,0-.01V1.354l0,0A1.667,1.667,0,0,1,2.809,0a1.639,1.639,0,0,1,1.77,1.458,1.639,1.639,0,0,1-1.77,1.458l-.1,0V3.919q0,.019,0,.038C2.705,4.837,4.821,5,7.2,5A3.217,3.217,0,0,1,4.213,7.814C3.064,7.814,2.768,7.337,2.2,7.337Zm.092-5.879a.581.581,0,0,0,.625.521.581.581,0,0,0,.625-.521A.581.581,0,0,0,2.913.937.581.581,0,0,0,2.288,1.458Z" transform="translate(19.165 12.498) rotate(180)" fill="#003d6a"/>
          <path id="Path_647" data-name="Path 647" d="M.937,7.613V3.854h0A1.668,1.668,0,0,1,2.708,2.5a1.639,1.639,0,0,1,1.77,1.458,1.639,1.639,0,0,1-1.77,1.458l-.1,0v.94H5.628l0-3.964c-.056-.947-.837-1.226-1.767-1.226A2.091,2.091,0,0,0,1.766,2.5H0C0,1.588,1.248,0,3.973,0,6.6,0,7.244,1.2,7.288,2.366h0L7.3,6.546A.975.975,0,0,1,6.48,7.609H5.63V7.6H2.6v.01Zm1.25-3.655a.521.521,0,0,0,.345.466l.069.025a.735.735,0,0,0,.211.03.581.581,0,0,0,.625-.521.581.581,0,0,0-.625-.521A.581.581,0,0,0,2.187,3.958Z" transform="translate(21.35 4.79)" fill="#003d6a"/>
          <path id="Path_649" data-name="Path 649" d="M1.675,3.629c-1.011-.011-1.251-.4-1.251-.4a1.92,1.92,0,0,0,.681-.77h0A1.306,1.306,0,0,1,0,1.25,1.368,1.368,0,0,1,1.458,0,1.368,1.368,0,0,1,2.916,1.25q0,.046,0,.091a1.981,1.981,0,0,1-.648,1.376A4.533,4.533,0,0,0,4.582.313H6.04C5.516,2.639,2.717,3.629,1.692,3.629ZM1.042,1.25A.417.417,0,1,0,1.458.833.417.417,0,0,0,1.042,1.25Z" transform="translate(13.539 0.417)" fill="#003d6a"/>
          <path id="Path_643" data-name="Path 643" d="M0,2.886a.678.678,0,0,1,0-.077A1.7,1.7,0,0,1,1.672,1.043,1.6,1.6,0,0,0,3.23,0L4.7.557A2.552,2.552,0,0,1,2.59,1.83l-.055,0a1.178,1.178,0,0,1,.591.978,1.434,1.434,0,0,1-1.562,1.25A1.458,1.458,0,0,1,0,2.886Zm1.113-.074a.433.433,0,0,0,.446.417.433.433,0,0,0,.446-.417A.433.433,0,0,0,1.564,2.4.433.433,0,0,0,1.117,2.812Z" transform="translate(65.298 0)" fill="#003d6a"/>
        </g>
      </g>
    </g>
  </g>
</svg>
