<svg xmlns="http://www.w3.org/2000/svg" xmlns:xlink="http://www.w3.org/1999/xlink" width="100" height="100" viewBox="0 0 100 100">
  <defs>
    <clipPath id="clip-standardcharter">
      <rect width="100" height="100"/>
    </clipPath>
  </defs>
  <g id="standardcharter" clip-path="url(#clip-standardcharter)">
    <g id="standard-chartered-1" transform="translate(-343.161 4.892)">
      <path id="Path_670" data-name="Path 670" d="M1414.969,138.745c.214.013,2.5,1.058,2.92,1.232l2.893,1.272c.308.161.6.281.964.429l2.933,1.3c.656.295,1.286.589,1.969.871s1.259.576,1.929.844l3.9,1.728c.362.161.241.188.924-.228a27.022,27.022,0,0,0,3.884-2.464l1.1-1.018a.925.925,0,0,0,.147-.174,10.171,10.171,0,0,0,2.665-7.634,9.714,9.714,0,0,0-1.3-4.58,10.094,10.094,0,0,0-1.259-1.714,10.523,10.523,0,0,0-2.357-2.063c-.6-.4-.5-.563-1.888.375l-17.639,10.634c-.321.188-.6.362-.911.549-.442.254-.79.362-.871.643Zm-7.46,28.152c-.067-.054,0-.013-.107-.094a6.929,6.929,0,0,1-1.179-.871l-.027-.027c-.013-.013-.027-.027-.027-.04-.08-.094-.134-.147-.214-.254a1.834,1.834,0,0,1-.321-.67c-.388-1.527,2.786-2.973,4.018-3.7a22.5,22.5,0,0,0,2.424-1.473l-5.572-2.424c-.4-.187-.763-.308-1.138-.509s-.723-.295-1.1-.482l-5.6-2.464c-1.071-.522-2.866-1.205-3.9-1.714-.094-.04-.174-.094-.281-.134-.214-.08-.241-.054-.295,0a6.534,6.534,0,0,0-1.406,2.518,6.164,6.164,0,0,0,3.857,7.487c2.183,1.1,5.692,2.638,8.089,3.656.817.335,1.955.951,2.772,1.192Z" transform="translate(-1019.709 -109.226)" fill="#a4d09f"/>
      <path id="Path_671" data-name="Path 671" d="M1337.6,14.331c-.147.4-.455.83-.656,1.313a6.69,6.69,0,0,0-.067,5.036c.723,1.714,2.5,2.933,4.272,3.777,1.795.857,3.723,1.7,5.572,2.491.938.4,1.835.83,2.8,1.232a27.052,27.052,0,0,0,2.826,1.205c-.295-.388-3.013-1.259-2.437-3.094.375-1.205,1.942-1.969,3.094-2.665l9.2-5.719c4.554-3.63,5.8-9.737,2.371-14.612-.094-.134-.2-.268-.308-.415l-.8-.911c-.013-.013-.027-.027-.04-.027l-.549-.509a4.7,4.7,0,0,0-.4-.321l-1.246-.871c-.388-.241-.268-.147-.884.228l-1.366.817c-.951.509-3.308,2.036-4.433,2.705Zm-10.1,64.407a10.186,10.186,0,0,0,1.085,4.272c2.518,5.009,8.33,7.674,13.38,5.638.214-.08.375-.161.616-.241a18.321,18.321,0,0,0,2.29-1.152L1355.88,80.3a2.267,2.267,0,0,1,.549-.308l-1.112-.6c-.348-.147-.7-.321-1.1-.5-2.745-1.138-6.04-2.8-8.759-3.911-.362-.147-.723-.321-1.085-.5l-3.281-1.473c-.322-.134-2.063-.951-2.223-.951-.187,0-6.2,3.616-7.085,4.152l-3.522,2.1a5.356,5.356,0,0,1-.763.415Zm49.822-12.549a3.081,3.081,0,0,1,.5-.522,5.4,5.4,0,0,0,1.112-5.21c-1.045-3.576-5.893-5-9.228-6.5-.911-.4-1.822-.8-2.759-1.205a14.979,14.979,0,0,0-2.678-1.085c.763.388,1.634,1.085,1.5,2.089-.107.83-1.112,1.661-1.7,2.009l-4.406,2.531c-.2.107-.147,0-.214.241l4.447,1.955c.763.362,1.487.629,2.25.991l10.9,4.835c.335.027.241-.013.281-.134Z" transform="translate(-963.339 0)" fill="#77add2"/>
      <path id="Path_672" data-name="Path 672" d="M405.821,144.8c.924.4,1.848.8,2.759,1.205,3.335,1.5,8.17,2.92,9.228,6.5a5.4,5.4,0,0,1-1.112,5.21c-.187.214-.348.268-.5.522a9.472,9.472,0,0,0,1.567-.911c2.384-1.607,4.138-2.839,5.585-5.518a14.162,14.162,0,0,0-.147-12.951c-.174-.295-.268-.455-.455-.737a14.509,14.509,0,0,0-2.518-2.826.766.766,0,0,1-.107-.094c-.134-.121-.214-.174-.362-.295-2.5-2.022-4.339-2.692-7.112-3.991-.308-.147-.576-.228-.884-.375l-3.429-1.513c-1.567-.737-3.616-1.54-5.13-2.263-1.46-.7-3.576-1.567-5.13-2.263l-5.13-2.263c-.335-.147-.549-.254-.871-.388a2.705,2.705,0,0,1-.4-.187.892.892,0,0,0-.469-.2,24.454,24.454,0,0,1-2.826-1.205c-.951-.415-1.862-.83-2.8-1.232-1.848-.79-3.777-1.634-5.572-2.491s-3.563-2.076-4.272-3.777a6.691,6.691,0,0,1,.067-5.036c.214-.5.509-.924.656-1.313-.737.522-1.366.857-2.183,1.513a17.044,17.044,0,0,0-1.969,1.808c-.375.482-.629.67-1.152,1.353a13.128,13.128,0,0,0-1.741,3.214,13.907,13.907,0,0,0-.884,4.138c0,.469-.067.643-.067,1.125a12.271,12.271,0,0,0,2.424,7.621l.83,1.018a8.928,8.928,0,0,0,.991.924,17.715,17.715,0,0,0,2.893,2.129,29.629,29.629,0,0,0,3.228,1.714l8.719,3.83c.295.121.589.268.857.388l4.313,1.888c.589.268,1.152.509,1.754.763.281.107.563.254.871.388l2.612,1.152c.871.348,4.755,2.036,5.183,2.344C403.143,143.713,405.621,144.717,405.821,144.8Z" transform="translate(-2.204 -92.056)" fill="#0071a9"/>
      <path id="Path_673" data-name="Path 673" d="M1361.172,333.853c-.817-.241-1.955-.844-2.772-1.192-2.4-1.018-5.906-2.571-8.089-3.656a6.97,6.97,0,0,1-3.83-4.031,7.182,7.182,0,0,1-.027-3.455,6.363,6.363,0,0,1,1.406-2.518,1.351,1.351,0,0,0-.522.295c-.2.134-.322.2-.522.335l-2.062,1.379a15.277,15.277,0,0,0-3.054,2.893,13.59,13.59,0,0,0,.87,17.009l.429.429c.616.549.63.629,1.366,1.205a30.811,30.811,0,0,0,6.522,3.71l31.862,14.237,3.321,1.768a52.716,52.716,0,0,1,5.746,3.7c.228.161.2.254.522.335a10.6,10.6,0,0,0,1.647-2.652c1.661-4.1,1.835-8.545-.321-12.281l-2.4-3.013a21.056,21.056,0,0,0-5.987-3.857l-2.987-1.312c-.268-.107-.455-.2-.737-.321-4.647-2-9.737-4.406-14.357-6.322-.281-.121-.429-.2-.723-.335l-4.54-2a2.8,2.8,0,0,0-.763-.348Z" transform="translate(-973.372 -276.182)" fill="#21a947"/>
    </g>
  </g>
</svg>
