<svg xmlns="http://www.w3.org/2000/svg" xmlns:xlink="http://www.w3.org/1999/xlink" width="100" height="100" viewBox="0 0 100 100">
  <defs>
    <clipPath id="clip-smebank">
      <rect width="100" height="100"/>
    </clipPath>
  </defs>
  <g id="smebank" clip-path="url(#clip-smebank)">
    <g id="small-and-medium-enterprise-sme-development-bank-of-thailand-logo-vector" transform="translate(-133.5 -72.147)">
      <path id="Path_650" data-name="Path 650" d="M157.406,166.878c-.18-.216-.4-.414-.558-.612-.054-.054-.054-.072-.054-.072A44.7,44.7,0,0,1,153.5,162a2.317,2.317,0,0,1,.108.378l-.018-.036s1.368,5.527,3.888,8.641a10.3,10.3,0,0,0,3.96,3.114l-.018-.018a8.186,8.186,0,0,0,1.278.414.089.089,0,0,1,.054.018c.216.036.4.09.612.108l-.018.018A8.64,8.64,0,0,0,169.9,173.4c-5.8-.108-10.783-4.734-12.493-6.517" transform="translate(-1.64 -69.578)" fill="#e50012"/>
      <path id="Path_651" data-name="Path 651" d="M281.172,103.979a20.359,20.359,0,0,0-10.027-2.052,7.184,7.184,0,0,0-1.35.144c-.288.054-.414.072-.414.072v.018a11.85,11.85,0,0,0-1.6.45l.018.018a16.664,16.664,0,0,0-5.383,3.186,32.939,32.939,0,0,0-4.806,5.491c-.522.792-1.062,1.638-1.62,2.52l-5.9,9.379c-2.538,3.51-7.6,9.073-13.483,7.939,0,0,12.277,3.474,19.622-5.8.144-.162.27-.306.4-.468.918-1.17,1.818-2.358,2.484-3.312a.534.534,0,0,1,.054-.072v.018c.234-.324.432-.63.612-.864l4.86-6.715a40.887,40.887,0,0,1,4.014-4.338,19.138,19.138,0,0,1,2.16-1.71,16.143,16.143,0,0,1,12.061-2.682c.342.054.684.126,1.044.216.018,0,.018,0,.018.018a14.337,14.337,0,0,0-2.754-1.458" transform="translate(-69.781 -20.288)" fill="#036eb7"/>
      <path id="Path_652" data-name="Path 652" d="M224.471,83.277a15.163,15.163,0,0,1,9.559-2.988c.306-.018.522-.018.63-.018l.072.036c0-.018-.036-.018-.036-.018h.072a.97.97,0,0,1-.234-.126c-.27-.162-.63-.324-1.026-.522h0c-17.912-8.083-24.644,5.977-25.112,7.039a25.416,25.416,0,0,0-2.592,9.253c-3.438,11.179-9.631,11.323-12.8,10.531a20.1,20.1,0,0,1-2.3-.9,16.726,16.726,0,0,0,4.572,3.726,10.2,10.2,0,0,0,6.769.522,14.022,14.022,0,0,0,4.878-2.718,25.654,25.654,0,0,0,3.384-4.14l6.409-10.423.216-.378,1.134-1.872a23.852,23.852,0,0,1,6.445-7Z" transform="translate(-32.143 0)" fill="#2fa139"/>
      <path id="Path_653" data-name="Path 653" d="M171.021,299.531a5.882,5.882,0,0,1-2.2,4.77,11.687,11.687,0,0,1-12.547.126,6.468,6.468,0,0,1-2.682-5.6h4.392a3.394,3.394,0,0,0,1.368,2.952,5.526,5.526,0,0,0,3.222.882q4.05,0,4.05-2.592c0-1.17-1.08-2.088-3.222-2.682-1.854-.54-3.258-.936-4.23-1.224-.972-.306-1.53-.468-1.674-.522a5.078,5.078,0,0,1-3.222-4.9,5.546,5.546,0,0,1,2.466-4.7,9.005,9.005,0,0,1,5.292-1.548,9.823,9.823,0,0,1,5.761,1.548,5.734,5.734,0,0,1,2.556,5.094h-4.446q-.216-3.132-4.1-3.132-3.132,0-3.132,2.376a1.74,1.74,0,0,0,1.152,1.674,45.474,45.474,0,0,0,5.076,1.44,11.69,11.69,0,0,1,3.618,1.422,5.06,5.06,0,0,1,2.5,4.608" transform="translate(-1.717 -170.026)" fill="#036eb7"/>
      <path id="Path_654" data-name="Path 654" d="M283.656,307.656V292.949h-.036l-5.112,14.707h-3.528l-5.058-14.581h-.054v14.581H265.6V286.9h6.391l4.9,14.275h.036l4.59-14.275h6.427v20.756Z" transform="translate(-93.56 -171.994)" fill="#036eb7"/>
      <path id="Path_655" data-name="Path 655" d="M412.2,307.656V286.9h15.517v3.834H416.736V295.2h10.1v3.51h-10.1v5.112h11.2v3.834Z" transform="translate(-213.77 -171.994)" fill="#036eb7"/>
      <path id="Path_656" data-name="Path 656" d="M167.323,483.511a4.753,4.753,0,0,1-2.052,4.158A7.616,7.616,0,0,1,160.645,489H151.5V470.1h8.875c4.032,0,6.067,1.566,6.067,4.7a4.124,4.124,0,0,1-2.574,3.924c2.3.648,3.456,2.25,3.456,4.788m-4.932-8.029c0-1.44-.954-2.16-2.844-2.16h-3.888v4.464h4.212c1.674-.018,2.52-.774,2.52-2.3m.792,7.777c0-1.782-1.008-2.7-3.006-2.7H155.64v5.184H160.1q3.078,0,3.078-2.484" transform="translate(0 -322.215)" fill="#036eb7"/>
      <path id="Path_657" data-name="Path 657" d="M259.159,511.059l-.162-.648c-.054-.216-.09-.45-.126-.684a6.089,6.089,0,0,1-4.608,1.692,5.172,5.172,0,0,1-3.294-1.008,3.712,3.712,0,0,1-1.368-3.1c0-2.322,1.548-3.726,4.644-4.158l3.1-.45c.9-.234,1.35-.684,1.35-1.368,0-1.224-.81-1.854-2.448-1.854a2.189,2.189,0,0,0-2.484,2.088h-3.726q.243-4.563,6.409-4.572c4.014,0,6.031,1.3,6.031,3.888V508a6.5,6.5,0,0,0,.486,3.042h-3.8Zm-.45-6.7a3.93,3.93,0,0,1-1.962.63,10.676,10.676,0,0,0-2.286.486,1.71,1.71,0,0,0-1.08,1.692c0,1.17.756,1.764,2.286,1.764,2.034,0,3.042-1.044,3.042-3.168Z" transform="translate(-80.44 -344.273)" fill="#036eb7"/>
      <path id="Path_658" data-name="Path 658" d="M346.473,511.141V503.4c0-2.232-.81-3.366-2.412-3.366-1.944,0-2.934,1.314-2.934,3.924v7.183H337.4V497.46h3.564v1.89h.072a4.632,4.632,0,0,1,4.176-2.25c1.908,0,3.24.5,4.014,1.53a6.644,6.644,0,0,1,1.008,4.086v8.425Z" transform="translate(-152.435 -344.355)" fill="#036eb7"/>
      <path id="Path_659" data-name="Path 659" d="M435.383,489l-3.762-6.085-1.458,1.4V489H426.4V470.1h3.762v10.153l4.734-4.932h4.464l-5.184,5L439.919,489Z" transform="translate(-225.413 -322.215)" fill="#036eb7"/>
      <path id="Path_660" data-name="Path 660" d="M158.655,419.364a3.919,3.919,0,0,1-.81,2.592,3.04,3.04,0,0,1-2.448,1.026h-3.1V415.8h3.1a3.192,3.192,0,0,1,2.34.882,3.7,3.7,0,0,1,.918,2.682m-1.584.162c0-1.6-.7-2.394-2.088-2.394h-1.116v4.536h1.422a1.682,1.682,0,0,0,1.242-.486,2.264,2.264,0,0,0,.54-1.656" transform="translate(-0.656 -277.69)" fill="#2fa139"/>
      <path id="Path_661" data-name="Path 661" d="M192.84,429.178c.018.882.45,1.332,1.278,1.332a1.273,1.273,0,0,0,.738-.216.833.833,0,0,0,.378-.468h1.26a2.332,2.332,0,0,1-2.448,1.746,2.591,2.591,0,0,1-1.926-.738,2.781,2.781,0,0,1-.72-2,2.832,2.832,0,0,1,.72-1.962,2.592,2.592,0,0,1,1.926-.774,2.293,2.293,0,0,1,1.98.954,3.077,3.077,0,0,1,.558,2.142H192.84Zm1.188-2.016a1.168,1.168,0,0,0-.936.4,1.28,1.28,0,0,0-.252.72h2.322c-.126-.738-.5-1.116-1.134-1.116" transform="translate(-32.717 -286.136)" fill="#2fa139"/>
      <path id="Path_662" data-name="Path 662" d="M225.584,432.1h-1.6l-1.782-5.2h1.512l1.1,3.546h.018l1.1-3.546h1.422Z" transform="translate(-57.973 -286.792)" fill="#2fa139"/>
      <path id="Path_663" data-name="Path 663" d="M254.122,429.178c.018.882.45,1.332,1.278,1.332a1.314,1.314,0,0,0,.738-.216.873.873,0,0,0,.4-.468h1.26a2.332,2.332,0,0,1-2.448,1.746,2.691,2.691,0,0,1-1.944-.738,2.77,2.77,0,0,1-.7-2,2.832,2.832,0,0,1,.72-1.962,2.564,2.564,0,0,1,1.926-.774,2.347,2.347,0,0,1,2,.954,2.983,2.983,0,0,1,.54,2.142h-3.762Zm1.188-2.016a1.168,1.168,0,0,0-.936.4,1.062,1.062,0,0,0-.252.72h2.322c-.126-.738-.5-1.116-1.134-1.116" transform="translate(-82.982 -286.136)" fill="#2fa139"/>
      <rect id="Rectangle_37" data-name="Rectangle 37" width="1.44" height="7.183" transform="translate(175.784 138.128)" fill="#2fa139"/>
      <path id="Path_664" data-name="Path 664" d="M305.164,428.854a3.157,3.157,0,0,1-.18,1.116,2.352,2.352,0,0,1-.54.864,2.434,2.434,0,0,1-.846.54,3.157,3.157,0,0,1-1.116.2,3.057,3.057,0,0,1-1.1-.2,2.724,2.724,0,0,1-.846-.54,2.352,2.352,0,0,1-.54-.864,3.156,3.156,0,0,1-.2-1.116,3.258,3.258,0,0,1,.2-1.134,2.351,2.351,0,0,1,.54-.864,2.315,2.315,0,0,1,.846-.558,3.194,3.194,0,0,1,2.214,0,2.477,2.477,0,0,1,.846.558,2.351,2.351,0,0,1,.54.864,3.259,3.259,0,0,1,.18,1.134m-1.44,0c0-1.116-.414-1.674-1.26-1.674q-1.242,0-1.242,1.674c0,1.116.414,1.656,1.242,1.656.846,0,1.26-.558,1.26-1.656" transform="translate(-121.603 -286.136)" fill="#2fa139"/>
      <path id="Path_665" data-name="Path 665" d="M340.11,428.89a3.049,3.049,0,0,1-.576,1.872,2.116,2.116,0,0,1-1.728.828,1.746,1.746,0,0,1-1.548-.774h-.036v2.466H334.8v-7.039h1.35v.648h.018a1.661,1.661,0,0,1,1.548-.792,2.148,2.148,0,0,1,1.8.846,3.126,3.126,0,0,1,.594,1.944m-1.458-.036a2.183,2.183,0,0,0-.27-1.152,1.1,1.1,0,0,0-.972-.54q-1.242,0-1.242,1.674c0,1.116.414,1.656,1.242,1.656.846.018,1.242-.54,1.242-1.638" transform="translate(-150.303 -286.136)" fill="#2fa139"/>
      <path id="Path_666" data-name="Path 666" d="M375.553,431.528v-2.934a1.988,1.988,0,0,0-.144-.9.734.734,0,0,0-.738-.378c-.648,0-.954.45-.954,1.332v2.9h-1.44V428.63a2.412,2.412,0,0,0-.09-.882.723.723,0,0,0-.774-.432.93.93,0,0,0-.594.216,1.225,1.225,0,0,0-.378.99v3.024H369v-5.2h1.35v.7h.018a1.809,1.809,0,0,1,1.584-.846,1.525,1.525,0,0,1,1.53.864,1.82,1.82,0,0,1,1.566-.864,1.664,1.664,0,0,1,1.908,1.872v3.474h-1.4Z" transform="translate(-178.346 -286.218)" fill="#2fa139"/>
      <path id="Path_667" data-name="Path 667" d="M419.722,429.178c.018.882.45,1.332,1.278,1.332a1.273,1.273,0,0,0,.738-.216.873.873,0,0,0,.4-.468h1.26a2.325,2.325,0,0,1-2.43,1.746,2.662,2.662,0,0,1-1.944-.738,2.781,2.781,0,0,1-.72-2,2.751,2.751,0,0,1,.72-1.962,2.564,2.564,0,0,1,1.926-.774,2.314,2.314,0,0,1,1.98.954,3.072,3.072,0,0,1,.54,2.142h-3.744Zm1.188-2.016a1.194,1.194,0,0,0-.936.4,1.28,1.28,0,0,0-.252.72h2.322c-.126-.738-.5-1.116-1.134-1.116" transform="translate(-218.772 -286.136)" fill="#2fa139"/>
      <path id="Path_668" data-name="Path 668" d="M455.256,431.446v-2.934q0-1.3-.918-1.3c-.738,0-1.116.5-1.116,1.494v2.736H451.8v-5.2h1.35v.72h.036a1.747,1.747,0,0,1,1.584-.864,1.831,1.831,0,0,1,1.53.576,2.534,2.534,0,0,1,.4,1.548v3.2h-1.44Z" transform="translate(-246.241 -286.136)" fill="#2fa139"/>
      <path id="Path_669" data-name="Path 669" d="M484.7,424.941c-1.08,0-1.638-.4-1.638-1.242v-3.1H482.2v-.936h.864V418.1h1.422v1.566h1.062v.936h-1.062v2.574a.692.692,0,0,0,.144.522,1.078,1.078,0,0,0,.468.09,2.041,2.041,0,0,0,.45-.054v1.134a3.9,3.9,0,0,1-.846.072" transform="translate(-271.168 -279.576)" fill="#2fa139"/>
    </g>
  </g>
</svg>
