<svg xmlns="http://www.w3.org/2000/svg" xmlns:xlink="http://www.w3.org/1999/xlink" width="100" height="100" viewBox="0 0 100 100">
  <defs>
    <clipPath id="clip-uob">
      <rect width="100" height="100"/>
    </clipPath>
  </defs>
  <g id="uob" clip-path="url(#clip-uob)">
    <rect width="100" height="100" fill="#00377b"/>
    <g id="Group_105" data-name="Group 105" transform="translate(-13 -13.275)">
      <g id="Group_104" data-name="Group 104" transform="translate(23 72.834)">
        <path id="Path_702" data-name="Path 702" d="M216.694,313.277h-.078c-5.271,0-7.287-2.946-7.287-10.5,0-7.481,1.977-10.232,7.248-10.232h.155c5.271,0,7.248,2.791,7.248,10.232,0,7.558-2.054,10.5-7.287,10.5m-.039-25.077c-9.147,0-13.256,4.5-13.256,14.612,0,9.884,4.263,14.729,13.023,14.767h.426c8.76-.039,13.023-4.884,13.023-14.767,0-10.116-4.07-14.612-13.217-14.612" transform="translate(-176.695 -288.2)" fill="#fff"/>
        <path id="Path_703" data-name="Path 703" d="M137.717,315.677c1.86,1.434,4.38,2.054,8.45,2.054h.233c4.109,0,6.628-.62,8.488-2.054,2.674-2.015,3.14-4.419,3.14-9.031V290.173a1.036,1.036,0,0,0-.271-.814,4.147,4.147,0,0,0-2.791-.659c-1.434,0-2.364.233-2.752.659a1.036,1.036,0,0,0-.271.814v17.248c0,2.868,0,3.45-1.279,4.535-1.163.969-2.946,1.085-4.38,1.085a7,7,0,0,1-4.38-1.085c-1.279-1.046-1.279-1.628-1.279-4.457V290.212a1.037,1.037,0,0,0-.271-.814,6.239,6.239,0,0,0-5.581,0,1.037,1.037,0,0,0-.271.814v16.434c.077,4.612.543,6.977,3.217,9.031" transform="translate(-134.5 -288.506)" fill="#fff"/>
        <path id="Path_704" data-name="Path 704" d="M292.481,313.735h-6.434v-8.643h6.9c3.837,0,4.612,1.667,4.612,4.38-.039,3.6-1.357,4.263-5.078,4.263m-6.473-20.542H292.6c3.411,0,3.682,1.744,3.682,3.992,0,2.713-1.24,3.837-4.147,3.837h-6.124Zm13.643-2.481c-1.512-1.124-3.333-1.512-6.9-1.512H280.969a.959.959,0,0,0-.969.969v26.705a.96.96,0,0,0,.969.969h12.364c3.333,0,5.7-.116,7.636-1.589,2.171-1.705,2.636-4.457,2.636-6.512,0-2.674-.892-4.806-2.519-5.969a8.049,8.049,0,0,0-2.326-1.124l-.543-.194.5-.233c2.4-1.163,3.295-2.752,3.256-5.891,0-1.473-.349-4.147-2.326-5.62" transform="translate(-223.605 -288.812)" fill="#fff"/>
      </g>
      <g id="Group_103" data-name="Group 103" transform="translate(41.651 24.275)">
        <path id="Path_705" data-name="Path 705" d="M92.1,322.072c0,1.027,1.307,1.167,2.1,1.167h.653c1.867-.093,1.867-.793,1.867-1.12V282.967c0-1.027-1.307-1.167-2.1-1.167H94.2c-.793,0-2.1.14-2.1,1.167v39.105Z" transform="translate(-61.394 -281.8)" fill="#ed1c2b"/>
        <path id="Path_706" data-name="Path 706" d="M39.6,322.072c0,1.027,1.307,1.167,2.1,1.167h.653c1.867-.093,1.867-.793,1.867-1.12V282.967c0-1.027-1.307-1.167-2.1-1.167H41.7c-.793,0-2.1.14-2.1,1.167v39.105Z" transform="translate(-33.394 -281.8)" fill="#ed1c2b"/>
        <path id="Path_707" data-name="Path 707" d="M57.1,322.072c0,1.027,1.307,1.167,2.1,1.167h.653c1.867-.093,1.867-.793,1.867-1.12V282.967c0-1.027-1.307-1.167-2.1-1.167H59.2c-.793,0-2.1.14-2.1,1.167v39.105Z" transform="translate(-42.727 -281.8)" fill="#ed1c2b"/>
        <path id="Path_708" data-name="Path 708" d="M74.6,322.072c0,1.027,1.307,1.167,2.1,1.167h.653c1.867-.093,1.867-.793,1.867-1.12V282.967c0-1.027-1.307-1.167-2.1-1.167H76.7c-.793,0-2.1.14-2.1,1.167v39.105Z" transform="translate(-52.061 -281.8)" fill="#ed1c2b"/>
        <path id="Path_709" data-name="Path 709" d="M27.467,321.2c-1.027,0-1.167,1.307-1.167,2.1v.653c.093,1.867.793,1.867,1.12,1.867H66.572c1.027,0,1.167-1.307,1.167-2.1v-.42c0-.793-.14-2.1-1.167-2.1H27.467Z" transform="translate(-26.3 -302.814)" fill="#ed1c2b"/>
      </g>
    </g>
  </g>
</svg>
